<svg xmlns="http://www.w3.org/2000/svg" xmlns:xlink="http://www.w3.org/1999/xlink" width="1080" zoomAndPan="magnify" viewBox="0 0 810 809.999993" height="1080" preserveAspectRatio="xMidYMid meet" version="1.0"><defs><g/><clipPath id="8f6716d45e"><path d="M 353 343 L 413 343 L 413 467 L 353 467 Z M 353 343 " clip-rule="nonzero"/></clipPath><clipPath id="1b70dd5e33"><path d="M 414.542969 460.574219 L 394.246094 467.914062 L 351.398438 349.375 L 371.695312 342.035156 Z M 414.542969 460.574219 " clip-rule="nonzero"/></clipPath><clipPath id="9d7fb5af96"><path d="M 408.195312 462.871094 L 400.59375 465.617188 C 398.910156 466.226562 397.054688 466.140625 395.433594 465.382812 C 393.8125 464.621094 392.558594 463.246094 391.949219 461.5625 L 353.710938 355.773438 C 353.105469 354.089844 353.1875 352.234375 353.949219 350.613281 C 354.710938 348.992188 356.082031 347.738281 357.765625 347.132812 L 365.367188 344.382812 C 367.050781 343.773438 368.90625 343.859375 370.527344 344.621094 C 372.148438 345.378906 373.402344 346.753906 374.011719 348.4375 L 412.25 454.226562 C 412.855469 455.910156 412.773438 457.765625 412.011719 459.386719 C 411.25 461.007812 409.878906 462.261719 408.195312 462.871094 Z M 408.195312 462.871094 " clip-rule="nonzero"/></clipPath><clipPath id="f1dcf7f9c3"><path d="M 351.425781 342.089844 L 372.777344 342.089844 L 372.777344 441.757812 L 351.425781 441.757812 Z M 351.425781 342.089844 " clip-rule="nonzero"/></clipPath><clipPath id="76b4e4630d"><path d="M 358.175781 342.089844 L 366.027344 342.089844 C 367.820312 342.089844 369.535156 342.800781 370.800781 344.066406 C 372.066406 345.332031 372.777344 347.046875 372.777344 348.839844 L 372.777344 434.988281 C 372.777344 436.777344 372.066406 438.496094 370.800781 439.761719 C 369.535156 441.027344 367.820312 441.738281 366.027344 441.738281 L 358.175781 441.738281 C 356.386719 441.738281 354.671875 441.027344 353.402344 439.761719 C 352.136719 438.496094 351.425781 436.777344 351.425781 434.988281 L 351.425781 348.839844 C 351.425781 347.046875 352.136719 345.332031 353.402344 344.066406 C 354.671875 342.800781 356.386719 342.089844 358.175781 342.089844 Z M 358.175781 342.089844 " clip-rule="nonzero"/></clipPath><clipPath id="52c9c81f49"><path d="M 393.308594 394.210938 L 414.660156 394.210938 L 414.660156 467.691406 L 393.308594 467.691406 Z M 393.308594 394.210938 " clip-rule="nonzero"/></clipPath><clipPath id="3420d4407d"><path d="M 407.910156 467.691406 L 400.058594 467.691406 C 398.269531 467.691406 396.554688 466.980469 395.289062 465.714844 C 394.023438 464.449219 393.308594 462.730469 393.308594 460.941406 L 393.308594 400.964844 C 393.308594 399.171875 394.023438 397.457031 395.289062 396.191406 C 396.554688 394.925781 398.269531 394.214844 400.058594 394.214844 L 407.910156 394.214844 C 409.703125 394.214844 411.417969 394.925781 412.683594 396.191406 C 413.949219 397.457031 414.660156 399.171875 414.660156 400.964844 L 414.660156 460.941406 C 414.660156 462.730469 413.949219 464.449219 412.683594 465.714844 C 411.417969 466.980469 409.703125 467.691406 407.910156 467.691406 Z M 407.910156 467.691406 " clip-rule="nonzero"/></clipPath><clipPath id="d0005ed49f"><path d="M 393.320312 342.089844 L 414.671875 342.089844 L 414.671875 390.210938 L 393.320312 390.210938 Z M 393.320312 342.089844 " clip-rule="nonzero"/></clipPath><clipPath id="2de5fe5cdb"><path d="M 400.070312 342.089844 L 407.921875 342.089844 C 409.714844 342.089844 411.429688 342.800781 412.695312 344.066406 C 413.960938 345.332031 414.671875 347.046875 414.671875 348.839844 L 414.671875 383.386719 C 414.671875 385.179688 413.960938 386.894531 412.695312 388.160156 C 411.429688 389.425781 409.714844 390.136719 407.921875 390.136719 L 400.070312 390.136719 C 398.28125 390.136719 396.566406 389.425781 395.300781 388.160156 C 394.035156 386.894531 393.320312 385.179688 393.320312 383.386719 L 393.320312 348.839844 C 393.320312 347.046875 394.035156 345.332031 395.300781 344.066406 C 396.566406 342.800781 398.28125 342.089844 400.070312 342.089844 Z M 400.070312 342.089844 " clip-rule="nonzero"/></clipPath><clipPath id="7c4c59ff46"><path d="M 351.425781 446.316406 L 372.777344 446.316406 L 372.777344 467.917969 L 351.425781 467.917969 Z M 351.425781 446.316406 " clip-rule="nonzero"/></clipPath><clipPath id="480842907f"><path d="M 358.175781 446.316406 L 366.027344 446.316406 C 367.820312 446.316406 369.535156 447.027344 370.800781 448.292969 C 372.066406 449.558594 372.777344 451.277344 372.777344 453.066406 L 372.777344 461.160156 C 372.777344 462.953125 372.066406 464.667969 370.800781 465.933594 C 369.535156 467.199219 367.820312 467.910156 366.027344 467.910156 L 358.175781 467.910156 C 356.386719 467.910156 354.671875 467.199219 353.402344 465.933594 C 352.136719 464.667969 351.425781 462.953125 351.425781 461.160156 L 351.425781 453.066406 C 351.425781 451.277344 352.136719 449.558594 353.402344 448.292969 C 354.671875 447.027344 356.386719 446.316406 358.175781 446.316406 Z M 358.175781 446.316406 " clip-rule="nonzero"/></clipPath><clipPath id="d5e08edf54"><path d="M 98.191406 394.425781 L 143.316406 394.425781 L 143.316406 415.777344 L 98.191406 415.777344 Z M 98.191406 394.425781 " clip-rule="nonzero"/></clipPath><clipPath id="99bf4409df"><path d="M 98.191406 409.027344 L 98.191406 401.175781 C 98.191406 399.386719 98.902344 397.667969 100.171875 396.402344 C 101.4375 395.136719 103.152344 394.425781 104.941406 394.425781 L 136.542969 394.425781 C 138.332031 394.425781 140.050781 395.136719 141.316406 396.402344 C 142.582031 397.667969 143.292969 399.386719 143.292969 401.175781 L 143.292969 409.027344 C 143.292969 410.816406 142.582031 412.535156 141.316406 413.800781 C 140.050781 415.066406 138.332031 415.777344 136.542969 415.777344 L 104.941406 415.777344 C 103.152344 415.777344 101.4375 415.066406 100.171875 413.800781 C 98.902344 412.535156 98.191406 410.816406 98.191406 409.027344 Z M 98.191406 409.027344 " clip-rule="nonzero"/></clipPath><clipPath id="bff09c7acf"><path d="M 89.40625 342.308594 L 110.757812 342.308594 L 110.757812 441.976562 L 89.40625 441.976562 Z M 89.40625 342.308594 " clip-rule="nonzero"/></clipPath><clipPath id="d9fddc889b"><path d="M 96.15625 342.308594 L 104.007812 342.308594 C 105.796875 342.308594 107.511719 343.019531 108.777344 344.285156 C 110.046875 345.550781 110.757812 347.269531 110.757812 349.058594 L 110.757812 435.210938 C 110.757812 437 110.046875 438.714844 108.777344 439.980469 C 107.511719 441.246094 105.796875 441.960938 104.007812 441.960938 L 96.15625 441.960938 C 94.363281 441.960938 92.648438 441.246094 91.382812 439.980469 C 90.117188 438.714844 89.40625 437 89.40625 435.210938 L 89.40625 349.058594 C 89.40625 347.269531 90.117188 345.550781 91.382812 344.285156 C 92.648438 343.019531 94.363281 342.308594 96.15625 342.308594 Z M 96.15625 342.308594 " clip-rule="nonzero"/></clipPath><clipPath id="e453ed9dad"><path d="M 132.621094 394.433594 L 153.972656 394.433594 L 153.972656 467.914062 L 132.621094 467.914062 Z M 132.621094 394.433594 " clip-rule="nonzero"/></clipPath><clipPath id="e5e6321e34"><path d="M 139.371094 394.433594 L 147.222656 394.433594 C 149.011719 394.433594 150.726562 395.144531 151.996094 396.410156 C 153.261719 397.675781 153.972656 399.394531 153.972656 401.183594 L 153.972656 461.160156 C 153.972656 462.953125 153.261719 464.667969 151.996094 465.933594 C 150.726562 467.199219 149.011719 467.910156 147.222656 467.910156 L 139.371094 467.910156 C 137.578125 467.910156 135.863281 467.199219 134.597656 465.933594 C 133.332031 464.667969 132.621094 462.953125 132.621094 461.160156 L 132.621094 401.183594 C 132.621094 399.394531 133.332031 397.675781 134.597656 396.410156 C 135.863281 395.144531 137.578125 394.433594 139.371094 394.433594 Z M 139.371094 394.433594 " clip-rule="nonzero"/></clipPath><clipPath id="566cc6d7f7"><path d="M 89.40625 446.316406 L 110.757812 446.316406 L 110.757812 467.917969 L 89.40625 467.917969 Z M 89.40625 446.316406 " clip-rule="nonzero"/></clipPath><clipPath id="eb0ba5b2c0"><path d="M 96.15625 446.316406 L 104.007812 446.316406 C 105.796875 446.316406 107.511719 447.027344 108.777344 448.292969 C 110.046875 449.558594 110.757812 451.277344 110.757812 453.066406 L 110.757812 461.160156 C 110.757812 462.953125 110.046875 464.667969 108.777344 465.933594 C 107.511719 467.199219 105.796875 467.910156 104.007812 467.910156 L 96.15625 467.910156 C 94.363281 467.910156 92.648438 467.199219 91.382812 465.933594 C 90.117188 464.667969 89.40625 462.953125 89.40625 461.160156 L 89.40625 453.066406 C 89.40625 451.277344 90.117188 449.558594 91.382812 448.292969 C 92.648438 447.027344 94.363281 446.316406 96.15625 446.316406 Z M 96.15625 446.316406 " clip-rule="nonzero"/></clipPath><clipPath id="c5dc25e9c2"><path d="M 132.621094 373.089844 L 154 373.089844 L 154 390.359375 L 132.621094 390.359375 Z M 132.621094 373.089844 " clip-rule="nonzero"/></clipPath><clipPath id="ea7a9d2bcc"><path d="M 139.371094 373.089844 L 147.222656 373.089844 C 149.011719 373.089844 150.726562 373.800781 151.996094 375.070312 C 153.261719 376.335938 153.972656 378.050781 153.972656 379.839844 L 153.972656 383.609375 C 153.972656 385.398438 153.261719 387.117188 151.996094 388.382812 C 150.726562 389.648438 149.011719 390.359375 147.222656 390.359375 L 139.371094 390.359375 C 137.578125 390.359375 135.863281 389.648438 134.597656 388.382812 C 133.332031 387.117188 132.621094 385.398438 132.621094 383.609375 L 132.621094 379.839844 C 132.621094 378.050781 133.332031 376.335938 134.597656 375.070312 C 135.863281 373.800781 137.578125 373.089844 139.371094 373.089844 Z M 139.371094 373.089844 " clip-rule="nonzero"/></clipPath><clipPath id="36a996001e"><path d="M 132.621094 342.308594 L 153.972656 342.308594 L 153.972656 368.914062 L 132.621094 368.914062 Z M 132.621094 342.308594 " clip-rule="nonzero"/></clipPath><clipPath id="c28fa48173"><path d="M 139.371094 342.308594 L 147.222656 342.308594 C 149.011719 342.308594 150.726562 343.019531 151.996094 344.285156 C 153.261719 345.550781 153.972656 347.269531 153.972656 349.058594 L 153.972656 362.125 C 153.972656 363.914062 153.261719 365.632812 151.996094 366.898438 C 150.726562 368.164062 149.011719 368.875 147.222656 368.875 L 139.371094 368.875 C 137.578125 368.875 135.863281 368.164062 134.597656 366.898438 C 133.332031 365.632812 132.621094 363.914062 132.621094 362.125 L 132.621094 349.058594 C 132.621094 347.269531 133.332031 345.550781 134.597656 344.285156 C 135.863281 343.019531 137.578125 342.308594 139.371094 342.308594 Z M 139.371094 342.308594 " clip-rule="nonzero"/></clipPath></defs><rect x="-81" width="972" fill="#ffffff" y="-80.999999" height="971.999992" fill-opacity="1"/><rect x="-81" width="972" fill="#ffffff" y="-80.999999" height="971.999992" fill-opacity="1"/><g fill="#2c3e50" fill-opacity="1"><g transform="translate(418.282457, 456.43157)"><g><path d="M 37.828125 1.15625 C 26.578125 1.15625 18.285156 -2.113281 12.953125 -8.65625 C 7.617188 -15.195312 4.953125 -24.820312 4.953125 -37.53125 C 4.953125 -51.882812 7.59375 -62.09375 12.875 -68.15625 C 18.15625 -74.21875 25.597656 -77.25 35.203125 -77.25 C 44.710938 -77.25 51.597656 -73.898438 55.859375 -67.203125 C 60.128906 -60.515625 62.265625 -50.816406 62.265625 -38.109375 C 62.265625 -36.953125 61.269531 -35.234375 59.28125 -32.953125 C 57.289062 -30.671875 55.8125 -29.53125 54.84375 -29.53125 L 27.203125 -29.53125 C 27.398438 -24.582031 28.515625 -21.066406 30.546875 -18.984375 C 32.585938 -16.898438 35.351562 -15.859375 38.84375 -15.859375 C 40.976562 -15.859375 42.914062 -16.148438 44.65625 -16.734375 C 46.40625 -17.316406 48.101562 -18.019531 49.75 -18.84375 C 51.40625 -19.664062 52.425781 -20.078125 52.8125 -20.078125 C 53.78125 -20.078125 54.867188 -19.375 56.078125 -17.96875 C 57.296875 -16.5625 58.316406 -14.957031 59.140625 -13.15625 C 59.960938 -11.363281 60.375 -9.984375 60.375 -9.015625 C 60.375 -6.785156 59.0625 -4.914062 56.4375 -3.40625 C 53.820312 -1.90625 50.742188 -0.769531 47.203125 0 C 43.671875 0.769531 40.546875 1.15625 37.828125 1.15625 Z M 42.625 -42.484375 C 42.625 -49.367188 42.039062 -54.289062 40.875 -57.25 C 39.71875 -60.207031 37.78125 -61.6875 35.0625 -61.6875 C 32.445312 -61.6875 30.4375 -60.28125 29.03125 -57.46875 C 27.625 -54.65625 26.722656 -49.660156 26.328125 -42.484375 Z M 42.625 -42.484375 "/></g></g></g><g fill="#2c3e50" fill-opacity="1"><g transform="translate(481.273516, 456.43157)"><g><path d="M 23.5625 1.15625 C 18.519531 1.15625 13.84375 0.285156 9.53125 -1.453125 C 5.21875 -3.203125 3.0625 -5.484375 3.0625 -8.296875 C 3.0625 -10.328125 4.003906 -12.847656 5.890625 -15.859375 C 7.785156 -18.867188 9.457031 -20.375 10.90625 -20.375 C 11.300781 -20.375 12.148438 -19.984375 13.453125 -19.203125 C 14.765625 -18.429688 16 -17.773438 17.15625 -17.234375 C 18.320312 -16.703125 19.679688 -16.4375 21.234375 -16.4375 C 23.566406 -16.4375 25.363281 -16.921875 26.625 -17.890625 C 27.882812 -18.859375 28.515625 -20.171875 28.515625 -21.828125 C 28.515625 -23.765625 27.882812 -25.3125 26.625 -26.46875 C 25.363281 -27.632812 23.375 -28.945312 20.65625 -30.40625 L 17.75 -32.15625 C 13.582031 -34.675781 10.257812 -37.460938 7.78125 -40.515625 C 5.3125 -43.566406 4.078125 -48.003906 4.078125 -53.828125 C 4.078125 -61.097656 6.28125 -66.816406 10.6875 -70.984375 C 15.101562 -75.160156 20.898438 -77.25 28.078125 -77.25 C 32.535156 -77.25 36.800781 -76.546875 40.875 -75.140625 C 44.945312 -73.734375 46.984375 -71.625 46.984375 -68.8125 C 46.984375 -66.875 46.28125 -64.425781 44.875 -61.46875 C 43.46875 -58.507812 42.1875 -57.03125 41.03125 -57.03125 C 40.738281 -57.03125 39.617188 -57.46875 37.671875 -58.34375 C 35.734375 -59.21875 33.75 -59.65625 31.71875 -59.65625 C 26.863281 -59.65625 24.4375 -58.003906 24.4375 -54.703125 C 24.4375 -53.054688 25.019531 -51.722656 26.1875 -50.703125 C 27.351562 -49.679688 29.289062 -48.394531 32 -46.84375 C 33.257812 -46.257812 34.8125 -45.390625 36.65625 -44.234375 C 40.445312 -41.804688 43.429688 -39.039062 45.609375 -35.9375 C 47.785156 -32.832031 48.875 -28.660156 48.875 -23.421875 C 48.875 -16.148438 46.617188 -10.234375 42.109375 -5.671875 C 37.609375 -1.117188 31.425781 1.15625 23.5625 1.15625 Z M 23.5625 1.15625 "/></g></g></g><g fill="#2c3e50" fill-opacity="1"><g transform="translate(529.571438, 456.43157)"><g><path d="M 26.625 1.15625 C 20.800781 1.15625 16.3125 -0.707031 13.15625 -4.4375 C 10.007812 -8.164062 8.4375 -13.863281 8.4375 -21.53125 L 8.4375 -59.0625 L 6.84375 -59.0625 C 5.289062 -59.0625 4.171875 -59.644531 3.484375 -60.8125 C 2.804688 -61.976562 2.46875 -63.820312 2.46875 -66.34375 L 2.46875 -68.8125 C 2.46875 -71.332031 2.804688 -73.175781 3.484375 -74.34375 C 4.171875 -75.507812 5.289062 -76.09375 6.84375 -76.09375 L 8.4375 -76.09375 L 10.328125 -89.90625 C 10.816406 -93.007812 13.4375 -94.5625 18.1875 -94.5625 L 22.703125 -94.5625 C 27.546875 -94.5625 29.96875 -93.007812 29.96875 -89.90625 L 29.96875 -76.09375 L 35.359375 -76.09375 C 36.910156 -76.09375 38.023438 -75.507812 38.703125 -74.34375 C 39.378906 -73.175781 39.71875 -71.332031 39.71875 -68.8125 L 39.71875 -66.34375 C 39.71875 -63.820312 39.378906 -61.976562 38.703125 -60.8125 C 38.023438 -59.644531 36.910156 -59.0625 35.359375 -59.0625 L 29.96875 -59.0625 L 29.96875 -20.953125 C 29.96875 -19.203125 30.234375 -17.914062 30.765625 -17.09375 C 31.296875 -16.269531 32.195312 -15.859375 33.46875 -15.859375 C 33.945312 -15.859375 34.597656 -15.953125 35.421875 -16.140625 C 36.242188 -16.335938 36.898438 -16.4375 37.390625 -16.4375 C 38.554688 -16.4375 39.570312 -15.050781 40.4375 -12.28125 C 41.3125 -9.519531 41.75 -7.460938 41.75 -6.109375 C 41.75 -3.679688 40.097656 -1.863281 36.796875 -0.65625 C 33.503906 0.550781 30.113281 1.15625 26.625 1.15625 Z M 26.625 1.15625 "/></g></g></g><g fill="#2c3e50" fill-opacity="1"><g transform="translate(569.868143, 456.43157)"><g><path d="M 11.203125 0.296875 C 5.578125 0.296875 2.765625 -1.253906 2.765625 -4.359375 L 2.765625 -17.75 C 2.765625 -20.851562 5.578125 -22.40625 11.203125 -22.40625 L 16 -22.40625 C 21.625 -22.40625 24.4375 -20.851562 24.4375 -17.75 L 24.4375 -4.359375 C 24.4375 -1.253906 21.625 0.296875 16 0.296875 Z M 11.203125 0.296875 "/></g></g></g><g fill="#27ae60" fill-opacity="1"><g transform="translate(594.169163, 456.43157)"><g><path d="M 16.4375 0.296875 C 10.613281 0.296875 7.703125 -1.253906 7.703125 -4.359375 L 7.703125 -71.71875 C 7.703125 -74.820312 10.613281 -76.375 16.4375 -76.375 L 20.515625 -76.375 C 26.335938 -76.375 29.25 -74.820312 29.25 -71.71875 L 29.25 -4.359375 C 29.25 -1.253906 26.335938 0.296875 20.515625 0.296875 Z M 18.625 -83.515625 C 11.445312 -83.515625 7.859375 -85.0625 7.859375 -88.15625 L 7.859375 -99.515625 C 7.859375 -102.617188 11.445312 -104.171875 18.625 -104.171875 C 25.800781 -104.171875 29.390625 -102.617188 29.390625 -99.515625 L 29.390625 -88.15625 C 29.390625 -85.0625 25.800781 -83.515625 18.625 -83.515625 Z M 18.625 -83.515625 "/></g></g></g><g fill="#27ae60" fill-opacity="1"><g transform="translate(628.064899, 456.43157)"><g><path d="M 26.921875 1.15625 C 22.648438 1.15625 18.890625 -0.367188 15.640625 -3.421875 C 12.390625 -6.472656 9.816406 -10.976562 7.921875 -16.9375 C 6.035156 -22.90625 5.09375 -30.0625 5.09375 -38.40625 C 5.09375 -50.820312 7.222656 -60.398438 11.484375 -67.140625 C 15.753906 -73.878906 21.722656 -77.25 29.390625 -77.25 C 34.140625 -77.25 38.113281 -75.84375 41.3125 -73.03125 L 41.3125 -105.046875 C 41.3125 -108.140625 44.222656 -109.6875 50.046875 -109.6875 L 54.125 -109.6875 C 59.9375 -109.6875 62.84375 -108.140625 62.84375 -105.046875 L 62.84375 -25.609375 C 62.84375 -21.140625 62.960938 -17.742188 63.203125 -15.421875 C 63.453125 -13.097656 63.769531 -10.523438 64.15625 -7.703125 C 64.445312 -6.441406 64.59375 -5.378906 64.59375 -4.515625 C 64.59375 -2.960938 62.628906 -1.796875 58.703125 -1.015625 C 54.773438 -0.242188 51.304688 0.140625 48.296875 0.140625 C 46.359375 0.140625 45.023438 -0.65625 44.296875 -2.25 C 43.566406 -3.851562 42.914062 -6.109375 42.34375 -9.015625 C 40.882812 -6.015625 38.796875 -3.566406 36.078125 -1.671875 C 33.359375 0.210938 30.304688 1.15625 26.921875 1.15625 Z M 34.1875 -16.4375 C 37 -16.4375 39.375 -18.378906 41.3125 -22.265625 L 41.3125 -58.1875 C 39.375 -59.550781 37.390625 -60.234375 35.359375 -60.234375 C 32.441406 -60.234375 30.304688 -58.507812 28.953125 -55.0625 C 27.597656 -51.625 26.921875 -45.925781 26.921875 -37.96875 C 26.921875 -30.40625 27.5 -24.925781 28.65625 -21.53125 C 29.820312 -18.132812 31.664062 -16.4375 34.1875 -16.4375 Z M 34.1875 -16.4375 "/></g></g></g><g fill="#2c3e50" fill-opacity="1"><g transform="translate(157.477265, 456.43157)"><g><path d="M 37.828125 1.15625 C 26.578125 1.15625 18.285156 -2.113281 12.953125 -8.65625 C 7.617188 -15.195312 4.953125 -24.820312 4.953125 -37.53125 C 4.953125 -51.882812 7.59375 -62.09375 12.875 -68.15625 C 18.15625 -74.21875 25.597656 -77.25 35.203125 -77.25 C 44.710938 -77.25 51.597656 -73.898438 55.859375 -67.203125 C 60.128906 -60.515625 62.265625 -50.816406 62.265625 -38.109375 C 62.265625 -36.953125 61.269531 -35.234375 59.28125 -32.953125 C 57.289062 -30.671875 55.8125 -29.53125 54.84375 -29.53125 L 27.203125 -29.53125 C 27.398438 -24.582031 28.515625 -21.066406 30.546875 -18.984375 C 32.585938 -16.898438 35.351562 -15.859375 38.84375 -15.859375 C 40.976562 -15.859375 42.914062 -16.148438 44.65625 -16.734375 C 46.40625 -17.316406 48.101562 -18.019531 49.75 -18.84375 C 51.40625 -19.664062 52.425781 -20.078125 52.8125 -20.078125 C 53.78125 -20.078125 54.867188 -19.375 56.078125 -17.96875 C 57.296875 -16.5625 58.316406 -14.957031 59.140625 -13.15625 C 59.960938 -11.363281 60.375 -9.984375 60.375 -9.015625 C 60.375 -6.785156 59.0625 -4.914062 56.4375 -3.40625 C 53.820312 -1.90625 50.742188 -0.769531 47.203125 0 C 43.671875 0.769531 40.546875 1.15625 37.828125 1.15625 Z M 42.625 -42.484375 C 42.625 -49.367188 42.039062 -54.289062 40.875 -57.25 C 39.71875 -60.207031 37.78125 -61.6875 35.0625 -61.6875 C 32.445312 -61.6875 30.4375 -60.28125 29.03125 -57.46875 C 27.625 -54.65625 26.722656 -49.660156 26.328125 -42.484375 Z M 42.625 -42.484375 "/></g></g></g><g fill="#2c3e50" fill-opacity="1"><g transform="translate(220.468324, 456.43157)"><g><path d="M 3.921875 0 C 1.304688 0 0 -0.773438 0 -2.328125 C 0 -2.816406 0.4375 -4.03125 1.3125 -5.96875 L 18.625 -38.546875 L 2.1875 -69.984375 C 1.3125 -71.722656 0.875 -72.984375 0.875 -73.765625 C 0.875 -74.535156 1.597656 -75.160156 3.046875 -75.640625 C 4.503906 -76.128906 6.640625 -76.375 9.453125 -76.375 L 14.84375 -76.375 C 17.363281 -76.375 19.273438 -76.226562 20.578125 -75.9375 C 21.890625 -75.644531 22.691406 -74.867188 22.984375 -73.609375 L 28.21875 -54.84375 L 29.53125 -49.75 C 30.40625 -53.25 30.84375 -55 30.84375 -55 L 36.21875 -73.609375 C 36.613281 -74.867188 37.441406 -75.644531 38.703125 -75.9375 C 39.960938 -76.226562 41.851562 -76.375 44.375 -76.375 L 49.609375 -76.375 C 52.421875 -76.375 54.550781 -76.128906 56 -75.640625 C 57.457031 -75.160156 58.1875 -74.535156 58.1875 -73.765625 C 58.1875 -72.984375 57.753906 -71.722656 56.890625 -69.984375 L 40.15625 -38.546875 L 57.171875 -5.96875 C 58.140625 -4.21875 58.625 -3.003906 58.625 -2.328125 C 58.625 -0.773438 56.832031 0 53.25 0 L 44.234375 0 C 41.421875 0 39.453125 -0.09375 38.328125 -0.28125 C 37.210938 -0.476562 36.507812 -1.207031 36.21875 -2.46875 L 30.546875 -22.84375 L 29.25 -27.5 L 28.078125 -22.84375 L 22.109375 -2.46875 C 21.722656 -1.207031 20.992188 -0.476562 19.921875 -0.28125 C 18.859375 -0.09375 16.96875 0 14.25 0 Z M 3.921875 0 "/></g></g></g><g fill="#2c3e50" fill-opacity="1"><g transform="translate(276.185553, 456.43157)"><g><path d="M 25.453125 1.15625 C 19.054688 1.15625 14.132812 -0.878906 10.6875 -4.953125 C 7.25 -9.023438 5.53125 -14.597656 5.53125 -21.671875 C 5.53125 -39.804688 16.828125 -48.828125 39.421875 -48.734375 L 39.421875 -51.0625 C 39.421875 -54.164062 38.71875 -56.46875 37.3125 -57.96875 C 35.90625 -59.476562 33.648438 -60.234375 30.546875 -60.234375 C 28.410156 -60.234375 26.519531 -59.960938 24.875 -59.421875 C 23.226562 -58.890625 21.382812 -58.140625 19.34375 -57.171875 C 17.988281 -56.398438 16.972656 -56.015625 16.296875 -56.015625 C 15.328125 -56.015625 14.257812 -56.738281 13.09375 -58.1875 C 11.925781 -59.644531 10.90625 -61.316406 10.03125 -63.203125 C 9.164062 -65.097656 8.734375 -66.582031 8.734375 -67.65625 C 8.734375 -69.300781 9.867188 -70.875 12.140625 -72.375 C 14.421875 -73.882812 17.378906 -75.070312 21.015625 -75.9375 C 24.660156 -76.8125 28.375 -77.25 32.15625 -77.25 C 42.238281 -77.25 49.554688 -75.019531 54.109375 -70.5625 C 58.671875 -66.101562 60.953125 -59.941406 60.953125 -52.078125 L 60.953125 -25.609375 C 60.953125 -21.140625 61.070312 -17.742188 61.3125 -15.421875 C 61.5625 -13.097656 61.878906 -10.523438 62.265625 -7.703125 C 62.554688 -6.441406 62.703125 -5.378906 62.703125 -4.515625 C 62.703125 -2.960938 60.738281 -1.796875 56.8125 -1.015625 C 52.882812 -0.242188 49.414062 0.140625 46.40625 0.140625 C 44.851562 0.140625 43.757812 -0.4375 43.125 -1.59375 C 42.5 -2.757812 41.847656 -4.65625 41.171875 -7.28125 C 39.910156 -5.144531 37.921875 -3.203125 35.203125 -1.453125 C 32.492188 0.285156 29.242188 1.15625 25.453125 1.15625 Z M 32 -14.40625 C 33.550781 -14.40625 34.984375 -14.835938 36.296875 -15.703125 C 37.609375 -16.578125 38.648438 -17.742188 39.421875 -19.203125 L 39.421875 -36.21875 C 29.722656 -36.21875 24.875 -31.90625 24.875 -23.28125 C 24.875 -20.5625 25.503906 -18.398438 26.765625 -16.796875 C 28.023438 -15.203125 29.769531 -14.40625 32 -14.40625 Z M 32 -14.40625 "/></g></g></g><g clip-path="url(#8f6716d45e)"><g clip-path="url(#1b70dd5e33)"><g clip-path="url(#9d7fb5af96)"><path fill="#2c3e50" d="M 414.542969 460.574219 L 394.246094 467.914062 L 351.425781 349.453125 L 371.726562 342.117188 Z M 414.542969 460.574219 " fill-opacity="1" fill-rule="nonzero"/></g></g></g><g clip-path="url(#f1dcf7f9c3)"><g clip-path="url(#76b4e4630d)"><path fill="#2c3e50" d="M 351.425781 342.089844 L 372.777344 342.089844 L 372.777344 441.757812 L 351.425781 441.757812 Z M 351.425781 342.089844 " fill-opacity="1" fill-rule="nonzero"/></g></g><g clip-path="url(#52c9c81f49)"><g clip-path="url(#3420d4407d)"><path fill="#2c3e50" d="M 414.660156 467.691406 L 393.308594 467.691406 L 393.308594 394.210938 L 414.660156 394.210938 Z M 414.660156 467.691406 " fill-opacity="1" fill-rule="nonzero"/></g></g><g clip-path="url(#d0005ed49f)"><g clip-path="url(#2de5fe5cdb)"><path fill="#27ae60" d="M 393.320312 342.089844 L 414.671875 342.089844 L 414.671875 390.128906 L 393.320312 390.128906 Z M 393.320312 342.089844 " fill-opacity="1" fill-rule="nonzero"/></g></g><g clip-path="url(#7c4c59ff46)"><g clip-path="url(#480842907f)"><path fill="#27ae60" d="M 351.425781 446.316406 L 372.777344 446.316406 L 372.777344 467.917969 L 351.425781 467.917969 Z M 351.425781 446.316406 " fill-opacity="1" fill-rule="nonzero"/></g></g><g clip-path="url(#d5e08edf54)"><g clip-path="url(#99bf4409df)"><path fill="#2c3e50" d="M 98.191406 415.777344 L 98.191406 394.425781 L 143.316406 394.425781 L 143.316406 415.777344 Z M 98.191406 415.777344 " fill-opacity="1" fill-rule="nonzero"/></g></g><g clip-path="url(#bff09c7acf)"><g clip-path="url(#d9fddc889b)"><path fill="#2c3e50" d="M 89.40625 342.308594 L 110.757812 342.308594 L 110.757812 441.976562 L 89.40625 441.976562 Z M 89.40625 342.308594 " fill-opacity="1" fill-rule="nonzero"/></g></g><g clip-path="url(#e453ed9dad)"><g clip-path="url(#e5e6321e34)"><path fill="#2c3e50" d="M 132.621094 394.433594 L 153.972656 394.433594 L 153.972656 467.914062 L 132.621094 467.914062 Z M 132.621094 394.433594 " fill-opacity="1" fill-rule="nonzero"/></g></g><g clip-path="url(#566cc6d7f7)"><g clip-path="url(#eb0ba5b2c0)"><path fill="#27ae60" d="M 89.40625 446.316406 L 110.757812 446.316406 L 110.757812 467.917969 L 89.40625 467.917969 Z M 89.40625 446.316406 " fill-opacity="1" fill-rule="nonzero"/></g></g><g clip-path="url(#c5dc25e9c2)"><g clip-path="url(#ea7a9d2bcc)"><path fill="#27ae60" d="M 132.621094 373.089844 L 154 373.089844 L 154 390.359375 L 132.621094 390.359375 Z M 132.621094 373.089844 " fill-opacity="1" fill-rule="nonzero"/></g></g><g clip-path="url(#36a996001e)"><g clip-path="url(#c28fa48173)"><path fill="#27ae60" d="M 132.621094 342.308594 L 153.972656 342.308594 L 153.972656 368.914062 L 132.621094 368.914062 Z M 132.621094 342.308594 " fill-opacity="1" fill-rule="nonzero"/></g></g></svg>